<?xml version="1.0" encoding="UTF-8"?><svg id="Layer_1" xmlns="http://www.w3.org/2000/svg" xmlns:xlink="http://www.w3.org/1999/xlink" viewBox="0 0 980.78 310.75"><defs><style>.cls-1{stroke-width:.46px;}.cls-1,.cls-2,.cls-3,.cls-4,.cls-5,.cls-6,.cls-7,.cls-8,.cls-9,.cls-10,.cls-11,.cls-12,.cls-13,.cls-14,.cls-15,.cls-16,.cls-17,.cls-18,.cls-19,.cls-20,.cls-21,.cls-22,.cls-23,.cls-24,.cls-25,.cls-26,.cls-27,.cls-28,.cls-29,.cls-30,.cls-31,.cls-32,.cls-33,.cls-34,.cls-35,.cls-36,.cls-37,.cls-38,.cls-39{stroke-miterlimit:10;}.cls-1,.cls-3,.cls-4,.cls-5,.cls-6,.cls-7,.cls-8,.cls-9,.cls-10,.cls-11,.cls-12,.cls-13,.cls-14,.cls-15,.cls-16,.cls-17,.cls-18,.cls-19,.cls-20,.cls-21,.cls-22,.cls-23,.cls-24,.cls-25,.cls-26,.cls-27,.cls-28,.cls-29,.cls-30,.cls-31,.cls-32,.cls-33,.cls-34,.cls-35,.cls-36,.cls-37,.cls-38,.cls-39{stroke:#929497;}.cls-1,.cls-3,.cls-4,.cls-8,.cls-9{fill:#929497;}.cls-2{stroke:#be1e2d;stroke-width:4.69px;}.cls-2,.cls-6,.cls-7{fill:none;}.cls-3{stroke-width:.39px;}.cls-4{stroke-width:.44px;}.cls-5{fill:url(#radial-gradient);}.cls-5,.cls-9,.cls-10,.cls-11,.cls-12,.cls-13,.cls-14,.cls-15,.cls-16,.cls-17,.cls-18,.cls-19,.cls-20,.cls-21,.cls-22,.cls-23,.cls-24,.cls-25,.cls-26,.cls-27,.cls-28,.cls-29,.cls-30,.cls-31,.cls-32,.cls-33,.cls-34,.cls-35,.cls-36,.cls-37,.cls-38,.cls-39{stroke-width:.78px;}.cls-6{stroke-width:3.1px;}.cls-7{stroke-width:3.71px;}.cls-8{stroke-width:.93px;}.cls-40{opacity:.3;}.cls-10{fill:url(#radial-gradient-24);}.cls-11{fill:url(#radial-gradient-29);}.cls-12{fill:url(#radial-gradient-28);}.cls-13{fill:url(#radial-gradient-22);}.cls-14{fill:url(#radial-gradient-27);}.cls-15{fill:url(#radial-gradient-26);}.cls-16{fill:url(#radial-gradient-23);}.cls-17{fill:url(#radial-gradient-31);}.cls-18{fill:url(#radial-gradient-30);}.cls-19{fill:url(#radial-gradient-20);}.cls-20{fill:url(#radial-gradient-21);}.cls-21{fill:url(#radial-gradient-25);}.cls-22{fill:url(#radial-gradient-19);}.cls-23{fill:url(#radial-gradient-10);}.cls-24{fill:url(#radial-gradient-11);}.cls-25{fill:url(#radial-gradient-17);}.cls-26{fill:url(#radial-gradient-18);}.cls-27{fill:url(#radial-gradient-15);}.cls-28{fill:url(#radial-gradient-12);}.cls-29{fill:url(#radial-gradient-16);}.cls-30{fill:url(#radial-gradient-13);}.cls-31{fill:url(#radial-gradient-14);}.cls-32{fill:url(#radial-gradient-3);}.cls-33{fill:url(#radial-gradient-5);}.cls-34{fill:url(#radial-gradient-9);}.cls-35{fill:url(#radial-gradient-6);}.cls-36{fill:url(#radial-gradient-7);}.cls-37{fill:url(#radial-gradient-4);}.cls-38{fill:url(#radial-gradient-8);}.cls-39{fill:url(#radial-gradient-2);}</style><radialGradient id="radial-gradient" cx="7.04" cy="183.4" fx="7.04" fy="183.4" r="30.23" gradientTransform="translate(152.15 58.01) scale(.74)" gradientUnits="userSpaceOnUse"><stop offset="0" stop-color="#fff"/><stop offset=".95" stop-color="#2d2b2c"/><stop offset="1" stop-color="#231f20"/></radialGradient><radialGradient id="radial-gradient-2" cx="-82.18" cy="269.52" fx="-82.18" fy="269.52" r="42.33" xlink:href="#radial-gradient"/><radialGradient id="radial-gradient-3" cx="40.54" cy="266.52" fx="40.54" fy="266.52" r="57.08" xlink:href="#radial-gradient"/><radialGradient id="radial-gradient-4" cx="50.4" cy="100.45" fx="50.4" fy="100.45" r="14.73" xlink:href="#radial-gradient"/><radialGradient id="radial-gradient-5" cx="-48.34" cy="47.01" fx="-48.34" fy="47.01" r="20.58" xlink:href="#radial-gradient"/><radialGradient id="radial-gradient-6" cx="-193.29" cy="118.08" fx="-193.29" fy="118.08" r="11.61" xlink:href="#radial-gradient"/><radialGradient id="radial-gradient-7" cx="32.03" cy="-45.21" fx="32.03" fy="-45.21" r="20.58" xlink:href="#radial-gradient"/><radialGradient id="radial-gradient-8" cx="-132.43" cy="236.98" fx="-132.43" fy="236.98" r="20.58" xlink:href="#radial-gradient"/><radialGradient id="radial-gradient-9" cx="42.55" cy="207.19" fx="42.55" fy="207.19" r="10.29" xlink:href="#radial-gradient"/><radialGradient id="radial-gradient-10" cx="113.02" cy="230.99" fx="113.02" fy="230.99" r="20.58" xlink:href="#radial-gradient"/><radialGradient id="radial-gradient-11" cx="303.13" cy="59.47" fx="303.13" fy="59.47" r="10.29" xlink:href="#radial-gradient"/><radialGradient id="radial-gradient-12" cx="264.68" cy="218.09" fx="264.68" fy="218.09" r="10.29" xlink:href="#radial-gradient"/><radialGradient id="radial-gradient-13" cx="211.76" cy="284.43" fx="211.76" fy="284.43" r="14.73" xlink:href="#radial-gradient"/><radialGradient id="radial-gradient-14" cx="345.36" cy="292.98" fx="345.36" fy="292.98" r="20.58" xlink:href="#radial-gradient"/><radialGradient id="radial-gradient-15" cx="464.49" cy="243.45" fx="464.49" fy="243.45" r="10.29" xlink:href="#radial-gradient"/><radialGradient id="radial-gradient-16" cx="425.14" cy="142.4" fx="425.14" fy="142.4" r="13.88" xlink:href="#radial-gradient"/><radialGradient id="radial-gradient-17" cx="598.51" cy="57.42" fx="598.51" fy="57.42" r="24.61" xlink:href="#radial-gradient"/><radialGradient id="radial-gradient-18" cx="622.84" cy="190.66" fx="622.84" fy="190.66" r="24.61" xlink:href="#radial-gradient"/><radialGradient id="radial-gradient-19" cx="694.64" cy="-52.85" fx="694.64" fy="-52.85" r="24.61" xlink:href="#radial-gradient"/><radialGradient id="radial-gradient-20" cx="779.9" cy="41.99" fx="779.9" fy="41.99" r="12.31" xlink:href="#radial-gradient"/><radialGradient id="radial-gradient-21" cx="716.61" cy="121.32" fx="716.61" fy="121.32" r="17.62" xlink:href="#radial-gradient"/><radialGradient id="radial-gradient-22" cx="931.56" cy="-11.94" fx="931.56" fy="-11.94" r="24.61" xlink:href="#radial-gradient"/><radialGradient id="radial-gradient-23" cx="211.97" cy="284.48" fx="211.97" fy="284.48" r="14.73" xlink:href="#radial-gradient"/><radialGradient id="radial-gradient-24" cx="113.23" cy="231.04" fx="113.23" fy="231.04" r="20.58" xlink:href="#radial-gradient"/><radialGradient id="radial-gradient-25" cx="-31.72" cy="302.11" fx="-31.72" fy="302.11" r="11.61" xlink:href="#radial-gradient"/><radialGradient id="radial-gradient-26" cx="464.71" cy="243.5" fx="464.71" fy="243.5" r="10.29" xlink:href="#radial-gradient"/><radialGradient id="radial-gradient-27" cx="586.71" cy="326.43" fx="586.71" fy="326.43" r="13.88" xlink:href="#radial-gradient"/><radialGradient id="radial-gradient-28" cx="760.09" cy="241.45" fx="760.09" fy="241.45" r="24.61" xlink:href="#radial-gradient"/><radialGradient id="radial-gradient-29" cx="941.48" cy="226.02" fx="941.48" fy="226.02" r="12.31" xlink:href="#radial-gradient"/><radialGradient id="radial-gradient-30" cx="878.18" cy="305.35" fx="878.18" fy="305.35" r="17.62" xlink:href="#radial-gradient"/><radialGradient id="radial-gradient-31" cx="1093.14" cy="172.09" fx="1093.14" fy="172.09" r="24.61" xlink:href="#radial-gradient"/></defs><g class="cls-40"><ellipse class="cls-3" cx="64.1" cy="75.22" rx="7.54" ry="7.72"/><line class="cls-6" x1="116.32" y1="92.85" x2="64.1" y2="75.22"/><line class="cls-6" x1="8.89" y1="145.53" x2="64.1" y2="75.22"/><line class="cls-6" x1="8.89" y1="145.53" x2="116.32" y2="92.85"/><ellipse class="cls-9" cx="131.4" cy="175.45" rx="15.07" ry="15.44"/><line class="cls-6" x1="62.61" y1="75.22" x2="175.89" y2="24.5"/><line class="cls-6" x1="228.73" y1="83.29" x2="189.51" y2="132.46"/><line class="cls-6" x1="189.51" y1="132.46" x2="133.81" y2="172.46"/><line class="cls-6" x1="115.8" y1="93.11" x2="131.4" y2="175.45"/><line class="cls-6" x1="115.8" y1="93.11" x2="191.33" y2="133.9"/><line class="cls-2" x1="175.89" y1="24.5" x2="228.73" y2="83.29"/><line class="cls-6" x1="187.93" y1="132.07" x2="288.53" y2="138.8"/><line class="cls-2" x1="228.73" y1="84.03" x2="288.53" y2="138.8"/><line class="cls-2" x1="322.71" y1="49.86" x2="228.73" y2="84.03"/><ellipse class="cls-9" cx="322.71" cy="49.86" rx="15.07" ry="15.44"/><line class="cls-6" x1="288.53" y1="138.8" x2="322.71" y2="49.86"/><line class="cls-2" x1="376.83" y1="102.09" x2="322.71" y2="49.86"/><ellipse class="cls-9" cx="131.05" cy="176.3" rx="15.07" ry="15.44"/><ellipse class="cls-4" cx="128.48" cy="281.89" rx="8.5" ry="8.71"/><line class="cls-6" x1="54" y1="233.66" x2="131.05" y2="176.3"/><line class="cls-5" x1="183.69" y1="211.58" x2="131.05" y2="176.3"/><line class="cls-2" x1="235.92" y1="229.22" x2="183.69" y2="211.58"/><line class="cls-6" x1="128.48" y1="281.89" x2="131.05" y2="176.3"/><line class="cls-39" x1="54" y1="233.66" x2="128.48" y2="281.89"/><line class="cls-32" x1="128.48" y1="281.89" x2="235.92" y2="229.22"/><line class="cls-2" x1="182.2" y1="211.58" x2="288.53" y2="138.8"/><line class="cls-6" x1="348.32" y1="219.65" x2="309.1" y2="268.83"/><line class="cls-2" x1="235.4" y1="229.47" x2="310.93" y2="270.27"/><line class="cls-6" x1="376.83" y1="102.09" x2="348.32" y2="219.65"/><line class="cls-2" x1="307.53" y1="268.43" x2="408.13" y2="275.16"/><line class="cls-6" x1="348.32" y1="220.4" x2="408.13" y2="275.16"/><line class="cls-6" x1="442.31" y1="186.22" x2="348.32" y2="220.4"/><ellipse class="cls-9" cx="442.31" cy="186.22" rx="15.07" ry="15.44"/><line class="cls-2" x1="408.13" y1="275.16" x2="442.31" y2="186.22"/><line class="cls-2" x1="496.42" y1="238.45" x2="442.31" y2="186.22"/><ellipse class="cls-1" cx="533.29" cy="79.48" rx="9.01" ry="9.23"/><line class="cls-2" x1="595.76" y1="100.57" x2="533.29" y2="79.48"/><line class="cls-2" x1="376.83" y1="102.09" x2="467.26" y2="163.56"/><line class="cls-2" x1="467.26" y1="163.56" x2="533.29" y2="79.48"/><line class="cls-7" x1="467.26" y1="163.56" x2="595.76" y2="100.57"/><line class="cls-2" x1="730.2" y1="89.14" x2="683.29" y2="147.93"/><line class="cls-7" x1="683.29" y1="147.93" x2="616.67" y2="195.76"/><line class="cls-7" x1="595.13" y1="100.88" x2="613.78" y2="199.33"/><line class="cls-2" x1="595.13" y1="100.88" x2="685.47" y2="149.65"/><line class="cls-7" x1="667" y1="18.84" x2="730.2" y2="89.14"/><line class="cls-7" x1="681.41" y1="147.46" x2="801.73" y2="155.51"/><line class="cls-7" x1="730.2" y1="90.03" x2="801.73" y2="155.51"/><line class="cls-2" x1="842.61" y1="49.16" x2="730.2" y2="90.03"/><line class="cls-2" x1="801.73" y1="155.51" x2="842.61" y2="49.16"/><ellipse class="cls-1" cx="907.33" cy="111.61" rx="9.01" ry="9.23"/><line class="cls-7" x1="907.33" y1="111.61" x2="842.61" y2="49.16"/><line class="cls-6" x1="613.78" y1="199.33" x2="496.42" y2="238.45"/><ellipse class="cls-37" cx="189.51" cy="132.46" rx="10.79" ry="11.05"/><ellipse class="cls-33" cx="116.32" cy="92.85" rx="15.07" ry="15.44"/><ellipse class="cls-35" cx="8.89" cy="145.53" rx="8.5" ry="8.71"/><ellipse class="cls-36" cx="175.89" cy="24.5" rx="15.07" ry="15.44"/><ellipse class="cls-38" cx="54" cy="233.66" rx="15.07" ry="15.44"/><ellipse class="cls-34" cx="183.69" cy="211.58" rx="7.54" ry="7.72"/><ellipse class="cls-23" cx="235.92" cy="229.22" rx="15.07" ry="15.44"/><ellipse class="cls-24" cx="376.83" cy="102.09" rx="7.54" ry="7.72"/><ellipse class="cls-28" cx="348.32" cy="219.65" rx="7.54" ry="7.72"/><ellipse class="cls-30" cx="309.1" cy="268.83" rx="10.79" ry="11.05"/><ellipse class="cls-31" cx="408.13" cy="275.16" rx="15.07" ry="15.44"/><ellipse class="cls-27" cx="496.42" cy="238.45" rx="7.54" ry="7.72"/><ellipse class="cls-29" cx="467.26" cy="163.56" rx="10.17" ry="10.41"/><ellipse class="cls-25" cx="595.76" cy="100.57" rx="18.03" ry="18.46"/><ellipse class="cls-26" cx="613.78" cy="199.33" rx="18.03" ry="18.46"/><ellipse class="cls-22" cx="667" cy="18.84" rx="18.03" ry="18.46"/><ellipse class="cls-19" cx="730.2" cy="89.14" rx="9.01" ry="9.23"/><ellipse class="cls-20" cx="683.29" cy="147.93" rx="12.9" ry="13.21"/><ellipse class="cls-13" cx="842.61" cy="49.16" rx="18.03" ry="18.46"/><ellipse class="cls-9" cx="288.53" cy="138.8" rx="15.07" ry="15.44"/><ellipse class="cls-3" cx="228.73" cy="83.29" rx="7.54" ry="7.72"/><ellipse class="cls-8" cx="801.73" cy="155.51" rx="18.03" ry="18.46"/><ellipse class="cls-3" cx="183.85" cy="211.62" rx="7.54" ry="7.72"/><line class="cls-6" x1="128.64" y1="281.93" x2="236.08" y2="229.25"/><ellipse class="cls-3" cx="348.48" cy="219.69" rx="7.54" ry="7.72"/><ellipse class="cls-9" cx="408.29" cy="275.2" rx="15.07" ry="15.44"/><ellipse class="cls-9" cx="442.47" cy="186.26" rx="15.07" ry="15.44"/><line class="cls-2" x1="496.58" y1="238.49" x2="587.01" y2="299.96"/><line class="cls-2" x1="587.01" y1="299.96" x2="715.51" y2="236.97"/><line class="cls-2" x1="849.95" y1="225.54" x2="803.04" y2="284.33"/><line class="cls-2" x1="714.88" y1="237.28" x2="805.23" y2="286.05"/><line class="cls-2" x1="810.1" y1="171.85" x2="849.95" y2="225.54"/><line class="cls-7" x1="962.36" y1="185.56" x2="849.95" y2="226.43"/><ellipse class="cls-16" cx="309.26" cy="268.86" rx="10.79" ry="11.05"/><ellipse class="cls-10" cx="236.08" cy="229.25" rx="15.07" ry="15.44"/><ellipse class="cls-21" cx="128.64" cy="281.93" rx="8.5" ry="8.71"/><ellipse class="cls-15" cx="496.58" cy="238.49" rx="7.54" ry="7.72"/><ellipse class="cls-14" cx="587.01" cy="299.96" rx="10.17" ry="10.41"/><ellipse class="cls-12" cx="715.51" cy="236.97" rx="18.03" ry="18.46"/><ellipse class="cls-11" cx="849.95" cy="225.54" rx="9.01" ry="9.23"/><ellipse class="cls-18" cx="803.04" cy="284.33" rx="12.9" ry="13.21"/><ellipse class="cls-17" cx="962.36" cy="185.56" rx="18.03" ry="18.46"/></g></svg>