<?xml version="1.0" encoding="UTF-8"?>
<svg id="Layer_1" data-name="Layer 1" xmlns="http://www.w3.org/2000/svg" xmlns:xlink="http://www.w3.org/1999/xlink" version="1.1" viewBox="0 0 1000 1000">
  <defs>
    <style>
      .cls-1 {
        stroke-width: .5px;
      }

      .cls-1, .cls-2, .cls-3, .cls-4, .cls-5, .cls-6, .cls-7, .cls-8, .cls-9, .cls-10, .cls-11, .cls-12, .cls-13, .cls-14, .cls-15, .cls-16, .cls-17, .cls-18, .cls-19, .cls-20, .cls-21, .cls-22, .cls-23, .cls-24, .cls-25, .cls-26, .cls-27, .cls-28, .cls-29, .cls-30, .cls-31, .cls-32, .cls-33, .cls-34, .cls-35, .cls-36, .cls-37, .cls-38, .cls-39 {
        stroke-miterlimit: 10;
      }

      .cls-1, .cls-3, .cls-4, .cls-5, .cls-6, .cls-7, .cls-8, .cls-9, .cls-10, .cls-11, .cls-12, .cls-13, .cls-14, .cls-15, .cls-16, .cls-17, .cls-18, .cls-19, .cls-20, .cls-21, .cls-22, .cls-23, .cls-24, .cls-25, .cls-26, .cls-27, .cls-28, .cls-29, .cls-30, .cls-31, .cls-32, .cls-33, .cls-34, .cls-35, .cls-36, .cls-37, .cls-38, .cls-39 {
        stroke: #929497;
      }

      .cls-1, .cls-3, .cls-4, .cls-8, .cls-9 {
        fill: #929497;
      }

      .cls-2 {
        stroke: #be1e2d;
        stroke-width: 4.7px;
      }

      .cls-2, .cls-6, .cls-7 {
        fill: none;
      }

      .cls-3 {
        stroke-width: .4px;
      }

      .cls-4 {
        stroke-width: .4px;
      }

      .cls-5 {
        fill: url(#radial-gradient);
      }

      .cls-5, .cls-9, .cls-10, .cls-11, .cls-12, .cls-13, .cls-14, .cls-15, .cls-16, .cls-17, .cls-18, .cls-19, .cls-20, .cls-21, .cls-22, .cls-23, .cls-24, .cls-25, .cls-26, .cls-27, .cls-28, .cls-29, .cls-30, .cls-31, .cls-32, .cls-33, .cls-34, .cls-35, .cls-36, .cls-37, .cls-38, .cls-39 {
        stroke-width: .8px;
      }

      .cls-6 {
        stroke-width: 3.1px;
      }

      .cls-7 {
        stroke-width: 3.7px;
      }

      .cls-8 {
        stroke-width: .9px;
      }

      .cls-40 {
        opacity: .3;
      }

      .cls-10 {
        fill: url(#radial-gradient-24);
      }

      .cls-11 {
        fill: url(#radial-gradient-29);
      }

      .cls-12 {
        fill: url(#radial-gradient-28);
      }

      .cls-13 {
        fill: url(#radial-gradient-22);
      }

      .cls-14 {
        fill: url(#radial-gradient-27);
      }

      .cls-15 {
        fill: url(#radial-gradient-26);
      }

      .cls-16 {
        fill: url(#radial-gradient-23);
      }

      .cls-17 {
        fill: url(#radial-gradient-31);
      }

      .cls-18 {
        fill: url(#radial-gradient-30);
      }

      .cls-19 {
        fill: url(#radial-gradient-20);
      }

      .cls-20 {
        fill: url(#radial-gradient-21);
      }

      .cls-21 {
        fill: url(#radial-gradient-25);
      }

      .cls-22 {
        fill: url(#radial-gradient-19);
      }

      .cls-23 {
        fill: url(#radial-gradient-10);
      }

      .cls-24 {
        fill: url(#radial-gradient-11);
      }

      .cls-25 {
        fill: url(#radial-gradient-17);
      }

      .cls-26 {
        fill: url(#radial-gradient-18);
      }

      .cls-27 {
        fill: url(#radial-gradient-15);
      }

      .cls-28 {
        fill: url(#radial-gradient-12);
      }

      .cls-29 {
        fill: url(#radial-gradient-16);
      }

      .cls-30 {
        fill: url(#radial-gradient-13);
      }

      .cls-31 {
        fill: url(#radial-gradient-14);
      }

      .cls-32 {
        fill: url(#radial-gradient-3);
      }

      .cls-33 {
        fill: url(#radial-gradient-5);
      }

      .cls-34 {
        fill: url(#radial-gradient-9);
      }

      .cls-35 {
        fill: url(#radial-gradient-6);
      }

      .cls-36 {
        fill: url(#radial-gradient-7);
      }

      .cls-37 {
        fill: url(#radial-gradient-4);
      }

      .cls-38 {
        fill: url(#radial-gradient-8);
      }

      .cls-39 {
        fill: url(#radial-gradient-2);
      }
    </style>
    <radialGradient id="radial-gradient" cx="16.9" cy="188.3" fx="16.9" fy="188.3" r="30.2" gradientTransform="translate(154.7 59.3) scale(.7)" gradientUnits="userSpaceOnUse">
      <stop offset="0" stop-color="#fff"/>
      <stop offset="1" stop-color="#2d2b2c"/>
      <stop offset="1" stop-color="#231f20"/>
    </radialGradient>
    <radialGradient id="radial-gradient-2" cx="-72.3" cy="274.4" fx="-72.3" fy="274.4" r="42.3" xlink:href="#radial-gradient"/>
    <radialGradient id="radial-gradient-3" cx="50.4" cy="271.4" fx="50.4" fy="271.4" r="57.1" xlink:href="#radial-gradient"/>
    <radialGradient id="radial-gradient-4" cx="60.3" cy="105.3" fx="60.3" fy="105.3" r="14.7" xlink:href="#radial-gradient"/>
    <radialGradient id="radial-gradient-5" cx="-38.5" cy="51.9" fx="-38.5" fy="51.9" r="20.6" xlink:href="#radial-gradient"/>
    <radialGradient id="radial-gradient-6" cx="-183.4" cy="123" fx="-183.4" fy="123" r="11.6" xlink:href="#radial-gradient"/>
    <radialGradient id="radial-gradient-7" cx="41.9" cy="-40.3" fx="41.9" fy="-40.3" r="20.6" xlink:href="#radial-gradient"/>
    <radialGradient id="radial-gradient-8" cx="-122.5" cy="241.9" fx="-122.5" fy="241.9" r="20.6" xlink:href="#radial-gradient"/>
    <radialGradient id="radial-gradient-9" cx="52.4" cy="212.1" fx="52.4" fy="212.1" r="10.3" xlink:href="#radial-gradient"/>
    <radialGradient id="radial-gradient-10" cx="122.9" cy="235.9" fx="122.9" fy="235.9" r="20.6" xlink:href="#radial-gradient"/>
    <radialGradient id="radial-gradient-11" cx="313" cy="64.3" fx="313" fy="64.3" r="10.3" xlink:href="#radial-gradient"/>
    <radialGradient id="radial-gradient-12" cx="274.6" cy="223" fx="274.6" fy="223" r="10.3" xlink:href="#radial-gradient"/>
    <radialGradient id="radial-gradient-13" cx="221.6" cy="289.3" fx="221.6" fy="289.3" r="14.7" xlink:href="#radial-gradient"/>
    <radialGradient id="radial-gradient-14" cx="355.2" cy="297.9" fx="355.2" fy="297.9" r="20.6" xlink:href="#radial-gradient"/>
    <radialGradient id="radial-gradient-15" cx="474.4" cy="248.3" fx="474.4" fy="248.3" r="10.3" xlink:href="#radial-gradient"/>
    <radialGradient id="radial-gradient-16" cx="435" cy="147.3" fx="435" fy="147.3" r="13.9" xlink:href="#radial-gradient"/>
    <radialGradient id="radial-gradient-17" cx="608.4" cy="62.3" fx="608.4" fy="62.3" r="24.6" xlink:href="#radial-gradient"/>
    <radialGradient id="radial-gradient-18" cx="632.7" cy="195.5" fx="632.7" fy="195.5" r="24.6" xlink:href="#radial-gradient"/>
    <radialGradient id="radial-gradient-19" cx="704.5" cy="-48" fx="704.5" fy="-48" r="24.6" xlink:href="#radial-gradient"/>
    <radialGradient id="radial-gradient-20" cx="789.8" cy="46.9" fx="789.8" fy="46.9" r="12.3" xlink:href="#radial-gradient"/>
    <radialGradient id="radial-gradient-21" cx="726.5" cy="126.2" fx="726.5" fy="126.2" r="17.6" xlink:href="#radial-gradient"/>
    <radialGradient id="radial-gradient-22" cx="941.4" cy="-7.1" fx="941.4" fy="-7.1" r="24.6" xlink:href="#radial-gradient"/>
    <radialGradient id="radial-gradient-23" cx="221.9" cy="289.4" fx="221.9" fy="289.4" r="14.7" xlink:href="#radial-gradient"/>
    <radialGradient id="radial-gradient-24" cx="123.1" cy="235.9" fx="123.1" fy="235.9" r="20.6" xlink:href="#radial-gradient"/>
    <radialGradient id="radial-gradient-25" cx="-21.8" cy="307" fx="-21.8" fy="307" r="11.6" xlink:href="#radial-gradient"/>
    <radialGradient id="radial-gradient-26" cx="474.6" cy="248.4" fx="474.6" fy="248.4" r="10.3" xlink:href="#radial-gradient"/>
    <radialGradient id="radial-gradient-27" cx="596.6" cy="331.3" fx="596.6" fy="331.3" r="13.9" xlink:href="#radial-gradient"/>
    <radialGradient id="radial-gradient-28" cx="770" cy="246.3" fx="770" fy="246.3" r="24.6" xlink:href="#radial-gradient"/>
    <radialGradient id="radial-gradient-29" cx="951.4" cy="230.9" fx="951.4" fy="230.9" r="12.3" xlink:href="#radial-gradient"/>
    <radialGradient id="radial-gradient-30" cx="888.1" cy="310.2" fx="888.1" fy="310.2" r="17.6" xlink:href="#radial-gradient"/>
    <radialGradient id="radial-gradient-31" cx="1103" cy="177" fx="1103" fy="177" r="24.6" xlink:href="#radial-gradient"/>
  </defs>
  <g class="cls-40">
    <g>
      <ellipse class="cls-3" cx="74" cy="80.1" rx="7.5" ry="7.7"/>
      <line class="cls-6" x1="126.2" y1="97.7" x2="74" y2="80.1"/>
      <line class="cls-6" x1="18.8" y1="150.4" x2="74" y2="80.1"/>
      <line class="cls-6" x1="18.8" y1="150.4" x2="126.2" y2="97.7"/>
      <ellipse class="cls-9" cx="141.3" cy="180.3" rx="15.1" ry="15.4"/>
      <line class="cls-6" x1="72.5" y1="80.1" x2="185.8" y2="29.4"/>
      <line class="cls-6" x1="238.6" y1="88.2" x2="199.4" y2="137.3"/>
      <line class="cls-6" x1="199.4" y1="137.3" x2="143.7" y2="177.3"/>
      <line class="cls-6" x1="125.7" y1="98" x2="141.3" y2="180.3"/>
      <line class="cls-6" x1="125.7" y1="98" x2="201.2" y2="138.8"/>
      <line class="cls-2" x1="185.8" y1="29.4" x2="238.6" y2="88.2"/>
      <line class="cls-6" x1="197.8" y1="136.9" x2="298.4" y2="143.7"/>
      <line class="cls-2" x1="238.6" y1="88.9" x2="298.4" y2="143.7"/>
      <line class="cls-2" x1="332.6" y1="54.7" x2="238.6" y2="88.9"/>
      <ellipse class="cls-9" cx="332.6" cy="54.7" rx="15.1" ry="15.4"/>
      <line class="cls-6" x1="298.4" y1="143.7" x2="332.6" y2="54.7"/>
      <line class="cls-2" x1="386.7" y1="107" x2="332.6" y2="54.7"/>
      <ellipse class="cls-9" cx="140.9" cy="181.2" rx="15.1" ry="15.4"/>
      <ellipse class="cls-4" cx="138.4" cy="286.8" rx="8.5" ry="8.7"/>
      <line class="cls-6" x1="63.9" y1="238.5" x2="140.9" y2="181.2"/>
      <line class="cls-5" x1="193.6" y1="216.5" x2="140.9" y2="181.2"/>
      <line class="cls-2" x1="245.8" y1="234.1" x2="193.6" y2="216.5"/>
      <line class="cls-6" x1="138.4" y1="286.8" x2="140.9" y2="181.2"/>
      <line class="cls-39" x1="63.9" y1="238.5" x2="138.4" y2="286.8"/>
      <line class="cls-32" x1="138.4" y1="286.8" x2="245.8" y2="234.1"/>
      <line class="cls-2" x1="192.1" y1="216.5" x2="298.4" y2="143.7"/>
      <line class="cls-6" x1="358.2" y1="224.5" x2="319" y2="273.7"/>
      <line class="cls-2" x1="245.3" y1="234.4" x2="320.8" y2="275.1"/>
      <line class="cls-6" x1="386.7" y1="107" x2="358.2" y2="224.5"/>
      <line class="cls-2" x1="317.4" y1="273.3" x2="418" y2="280"/>
      <line class="cls-6" x1="358.2" y1="225.3" x2="418" y2="280"/>
      <line class="cls-6" x1="452.2" y1="191.1" x2="358.2" y2="225.3"/>
      <ellipse class="cls-9" cx="452.2" cy="191.1" rx="15.1" ry="15.4"/>
      <line class="cls-2" x1="418" y1="280" x2="452.2" y2="191.1"/>
      <line class="cls-2" x1="506.3" y1="243.3" x2="452.2" y2="191.1"/>
      <ellipse class="cls-1" cx="543.2" cy="84.4" rx="9" ry="9.2"/>
      <line class="cls-2" x1="605.6" y1="105.5" x2="543.2" y2="84.4"/>
      <line class="cls-2" x1="386.7" y1="107" x2="477.1" y2="168.4"/>
      <line class="cls-2" x1="477.1" y1="168.4" x2="543.2" y2="84.4"/>
      <line class="cls-7" x1="477.1" y1="168.4" x2="605.6" y2="105.5"/>
      <line class="cls-2" x1="740.1" y1="94" x2="693.2" y2="152.8"/>
      <line class="cls-7" x1="693.2" y1="152.8" x2="626.6" y2="200.6"/>
      <line class="cls-7" x1="605" y1="105.8" x2="623.7" y2="204.2"/>
      <line class="cls-2" x1="605" y1="105.8" x2="695.4" y2="154.5"/>
      <line class="cls-7" x1="676.9" y1="23.7" x2="740.1" y2="94"/>
      <line class="cls-7" x1="691.3" y1="152.3" x2="811.6" y2="160.4"/>
      <line class="cls-7" x1="740.1" y1="94.9" x2="811.6" y2="160.4"/>
      <line class="cls-2" x1="852.5" y1="54" x2="740.1" y2="94.9"/>
      <line class="cls-2" x1="811.6" y1="160.4" x2="852.5" y2="54"/>
      <ellipse class="cls-1" cx="917.2" cy="116.5" rx="9" ry="9.2"/>
      <line class="cls-7" x1="917.2" y1="116.5" x2="852.5" y2="54"/>
      <line class="cls-6" x1="623.7" y1="204.2" x2="506.3" y2="243.3"/>
      <ellipse class="cls-37" cx="199.4" cy="137.3" rx="10.8" ry="11"/>
      <ellipse class="cls-33" cx="126.2" cy="97.7" rx="15.1" ry="15.4"/>
      <ellipse class="cls-35" cx="18.8" cy="150.4" rx="8.5" ry="8.7"/>
      <ellipse class="cls-36" cx="185.8" cy="29.4" rx="15.1" ry="15.4"/>
      <ellipse class="cls-38" cx="63.9" cy="238.5" rx="15.1" ry="15.4"/>
      <ellipse class="cls-34" cx="193.6" cy="216.5" rx="7.5" ry="7.7"/>
      <ellipse class="cls-23" cx="245.8" cy="234.1" rx="15.1" ry="15.4"/>
      <ellipse class="cls-24" cx="386.7" cy="107" rx="7.5" ry="7.7"/>
      <ellipse class="cls-28" cx="358.2" cy="224.5" rx="7.5" ry="7.7"/>
      <ellipse class="cls-30" cx="319" cy="273.7" rx="10.8" ry="11"/>
      <ellipse class="cls-31" cx="418" cy="280" rx="15.1" ry="15.4"/>
      <ellipse class="cls-27" cx="506.3" cy="243.3" rx="7.5" ry="7.7"/>
      <ellipse class="cls-29" cx="477.1" cy="168.4" rx="10.2" ry="10.4"/>
      <ellipse class="cls-25" cx="605.6" cy="105.5" rx="18" ry="18.5"/>
      <ellipse class="cls-26" cx="623.7" cy="204.2" rx="18" ry="18.5"/>
      <ellipse class="cls-22" cx="676.9" cy="23.7" rx="18" ry="18.5"/>
      <ellipse class="cls-19" cx="740.1" cy="94" rx="9" ry="9.2"/>
      <ellipse class="cls-20" cx="693.2" cy="152.8" rx="12.9" ry="13.2"/>
      <ellipse class="cls-13" cx="852.5" cy="54" rx="18" ry="18.5"/>
      <ellipse class="cls-9" cx="298.4" cy="143.7" rx="15.1" ry="15.4"/>
      <ellipse class="cls-3" cx="238.6" cy="88.2" rx="7.5" ry="7.7"/>
      <ellipse class="cls-8" cx="811.6" cy="160.4" rx="18" ry="18.5"/>
    </g>
    <g>
      <ellipse class="cls-3" cx="193.7" cy="216.5" rx="7.5" ry="7.7"/>
      <line class="cls-6" x1="138.5" y1="286.8" x2="246" y2="234.1"/>
      <ellipse class="cls-3" cx="358.4" cy="224.6" rx="7.5" ry="7.7"/>
      <ellipse class="cls-9" cx="418.2" cy="280.1" rx="15.1" ry="15.4"/>
      <ellipse class="cls-9" cx="452.3" cy="191.1" rx="15.1" ry="15.4"/>
      <line class="cls-2" x1="506.5" y1="243.4" x2="596.9" y2="304.8"/>
      <line class="cls-2" x1="596.9" y1="304.8" x2="725.4" y2="241.9"/>
      <line class="cls-2" x1="859.8" y1="230.4" x2="812.9" y2="289.2"/>
      <line class="cls-2" x1="724.8" y1="242.2" x2="815.1" y2="290.9"/>
      <line class="cls-2" x1="820" y1="176.7" x2="859.8" y2="230.4"/>
      <line class="cls-7" x1="972.2" y1="190.4" x2="859.8" y2="231.3"/>
      <ellipse class="cls-16" cx="319.1" cy="273.7" rx="10.8" ry="11"/>
      <ellipse class="cls-10" cx="246" cy="234.1" rx="15.1" ry="15.4"/>
      <ellipse class="cls-21" cx="138.5" cy="286.8" rx="8.5" ry="8.7"/>
      <ellipse class="cls-15" cx="506.5" cy="243.4" rx="7.5" ry="7.7"/>
      <ellipse class="cls-14" cx="596.9" cy="304.8" rx="10.2" ry="10.4"/>
      <ellipse class="cls-12" cx="725.4" cy="241.9" rx="18" ry="18.5"/>
      <ellipse class="cls-11" cx="859.8" cy="230.4" rx="9" ry="9.2"/>
      <ellipse class="cls-18" cx="812.9" cy="289.2" rx="12.9" ry="13.2"/>
      <ellipse class="cls-17" cx="972.2" cy="190.4" rx="18" ry="18.5"/>
    </g>
  </g>
</svg>